<svg xmlns="http://www.w3.org/2000/svg" width="87.371" height="83.886" viewBox="0 0 87.371 83.886"><defs><style>.a{fill:#002a5e;}.b{fill:#fefefe;}.c{fill:#fdfdfe;}</style></defs><g transform="translate(0)"><path class="a" d="M-262.409,113.164c.987.85.864,2.105,1.054,3.193a41.349,41.349,0,0,1-3.707,26.111,41.553,41.553,0,0,1-16.459,17.58,40.926,40.926,0,0,1-16.314,5.437,40.05,40.05,0,0,1-21.563-3.3c-13.242-6.075-21.436-16.3-24.372-30.578a40.362,40.362,0,0,1,2.7-24.435,40.452,40.452,0,0,1,8.685-12.828,41.138,41.138,0,0,1,24.221-12.077,41.032,41.032,0,0,1,26.331,5.138,6.213,6.213,0,0,1,.56.407c.086.607-.376.916-.734,1.237-2.181,1.953-2.906,4.488-3.021,7.3-.108,2.628-.124,5.253-.008,7.881a13.653,13.653,0,0,0,.816,4.083c1.069,2.942,3.293,4.473,6.248,5.156.632.146,1.593-.045,1.78.791.173.775-.635,1.165-1.169,1.593a1.41,1.41,0,0,0-.547,1.835,1.674,1.674,0,0,0,1.905.792,11.593,11.593,0,0,0,7.171-3.5A4,4,0,0,1-266,113.617a9.032,9.032,0,0,0,2.269-.476C-263.288,113-262.842,112.8-262.409,113.164Z" transform="translate(344.586 -81.886)"/><path class="b" d="M-194.781,117.6a2.261,2.261,0,0,0-.333.1c-1.5.71-3.3.474-4.694,1.143s-2.3,2.237-3.757,3.03a12.872,12.872,0,0,1-5.188,1.536,1.841,1.841,0,0,1-2.124-1.236,1.821,1.821,0,0,1,.956-2.354,3.3,3.3,0,0,0,1.306-1.129c-.6-.109-1.111-.188-1.616-.3-4.425-.945-6.8-3.427-7.433-7.929a46.722,46.722,0,0,1-.062-11.369,8.961,8.961,0,0,1,4.08-6.844,24.31,24.31,0,0,1,17.856-.71,7.94,7.94,0,0,1,5.635,6.486,39.872,39.872,0,0,1,.115,12.711A8.531,8.531,0,0,1-194.781,117.6Z" transform="translate(276.959 -86.323)"/><path class="b" d="M-257.963,206.351c.327.9-.355,1.66-1.327,2.413a36.616,36.616,0,0,1-20.963,7.83,34.793,34.793,0,0,1-24.658-8.357,1.407,1.407,0,0,1-.6-1.267q.478-12.405,11.264-18.535a1.533,1.533,0,0,1,1.953.164,17.584,17.584,0,0,0,21.106.012,1.593,1.593,0,0,1,2.05-.1C-262.363,192.371-258.7,198.2-257.963,206.351Z" transform="translate(323.707 -138.679)"/><path class="b" d="M-280.827,144.431A12.338,12.338,0,0,1-268.461,132.1a12.413,12.413,0,0,1,12.342,12.394,12.349,12.349,0,0,1-12.4,12.3A12.271,12.271,0,0,1-280.827,144.431Z" transform="translate(310.512 -108.72)"/><path class="a" d="M-202.388,123.168a10.715,10.715,0,0,0,.4-1.006c.492-1.816-.128-2.716-1.974-2.882-.617-.055-1.243-.059-1.853-.156-3.46-.549-5.336-2.533-5.654-6.047a48.987,48.987,0,0,1-.007-10.094,6.03,6.03,0,0,1,4.33-5.465,23.55,23.55,0,0,1,9.194-.806,15.3,15.3,0,0,1,4.2.807,6.327,6.327,0,0,1,4.392,5.952,81,81,0,0,1,.009,9.177c-.223,3.857-2.476,6.229-6.336,6.541a7.229,7.229,0,0,1-1.043.068,2.229,2.229,0,0,0-2.2,1.158A7.2,7.2,0,0,1-202.388,123.168Z" transform="translate(273.587 -89.753)"/><path class="b" d="M-192.318,107.092a19.853,19.853,0,0,1,.014-2.012,2.156,2.156,0,0,1,2.132-2.037c1.232-.069,1.868.423,2.192,1.733.438,1.776-.091,3.535-.137,5.3a29.75,29.75,0,0,1-.37,3.332c-.137.98-.606,1.633-1.725,1.612-1.09-.02-1.457-.723-1.6-1.63C-192.142,111.33-192.165,109.242-192.318,107.092Z" transform="translate(263.223 -93.189)"/><path class="c" d="M-190.183,134.078a2.123,2.123,0,0,1-2.175-2.186,2.263,2.263,0,0,1,2.275-2.286,2.31,2.31,0,0,1,2.234,2.339A2.124,2.124,0,0,1-190.183,134.078Z" transform="translate(263.233 -107.389)"/></g></svg>